<svg xmlns="http://www.w3.org/2000/svg" viewBox="0 0 24 24" style="display: none;">
    <symbol id="icon-tracks" viewBox="0 0 430.499 430.499">
        <path d="M388.241,315.399c6.957,22.525-6.975,50.058-33.963,64.415c-29.737,15.806-63.967,9.587-76.438-13.891
        c-12.483-23.478,1.513-55.324,31.244-71.124c15.179-8.068,31.517-10.367,45.537-7.596l-0.674-246.313L155.534,75.548
        l-0.029,281.981c6.833,22.491-7.099,49.923-34.022,64.227c-29.737,15.8-63.958,9.6-76.438-13.878
        c-12.475-23.489,1.513-55.337,31.25-71.142c15.196-8.08,31.551-10.38,45.592-7.584l0.044-282.505L389.104,0L388.241,315.399z"/>
    </symbol>
    <symbol id="icon-albums" viewBox="0 0 24 24">
        <g>
            <path fill="none" d="M0 0h24v24H0z"/>
            <path d="M12 2c5.52 0 10 4.48 10 10s-4.48 10-10 10S2 17.52 2 12 6.48 2 12 2zm0 14c2.213 0 4-1.787 4-4s-1.787-4-4-4-4 1.787-4 4 1.787 4 4 4zm0-5c.55 0 1 .45 1 1s-.45 1-1 1-1-.45-1-1 .45-1 1-1z"/>
        </g>
    </symbol>
    <symbol id="icon-playlists" viewBox="0 0 24 24">
        <g>
            <path d="M13 16.493C13 18.427 14.573 20 16.507 20s3.507-1.573 3.507-3.507c0-.177-.027-.347-.053-.517H20V6h2V4h-3a1 1 0 0 0-1 1v8.333a3.465 3.465 0 0 0-1.493-.346A3.51 3.51 0 0 0 13 16.493zM2 5h14v2H2z"/>
            <path d="M2 9h14v2H2zm0 4h9v2H2zm0 4h9v2H2z"/>
        </g>
    </symbol>
    <symbol id="icon-settings" viewBox="0 0 458.317 458.317">
        <path d="M446.185,179.159h-64.768c-2.536-7.702-5.636-15.15-9.26-22.29l45.818-45.818c4.737-4.737,4.737-12.416,0-17.152
			L364.416,40.34c-4.737-4.737-12.416-4.737-17.152,0l-45.818,45.818c-7.14-3.624-14.587-6.724-22.289-9.26V12.131
			c0.001-6.699-5.429-12.129-12.128-12.129h-75.743c-6.698,0-12.129,5.43-12.129,12.128v64.768
			c-7.702,2.535-15.149,5.636-22.29,9.26L111.05,40.341c-4.737-4.737-12.416-4.737-17.152,0L40.339,93.9
			c-4.737,4.736-4.737,12.416,0,17.152l45.817,45.817c-3.624,7.14-6.725,14.588-9.26,22.29H12.129C5.43,179.159,0,184.59,0,191.288
			v75.743c0,6.698,5.43,12.128,12.129,12.128h64.768c2.536,7.702,5.636,15.149,9.26,22.29L40.34,347.266
			c-4.737,4.736-4.737,12.416,0,17.152l53.559,53.559c4.737,4.736,12.416,4.736,17.152,0l45.817-45.817
			c7.14,3.624,14.587,6.725,22.29,9.26v64.768c0,6.698,5.43,12.128,12.129,12.128h75.743c6.698,0,12.129-5.43,12.129-12.128v-64.768
			c7.702-2.535,15.149-5.636,22.289-9.26l45.818,45.817c4.737,4.736,12.416,4.736,17.152,0l53.559-53.559
			c4.737-4.737,4.737-12.416,0-17.152l-45.817-45.817c3.624-7.14,6.724-14.587,9.26-22.289h64.768
			c6.698,0,12.129-5.43,12.129-12.128v-75.743C458.314,184.59,452.884,179.159,446.185,179.159z M229.157,289.542
			c-33.349,0-60.384-27.035-60.384-60.384s27.035-60.384,60.384-60.384s60.384,27.035,60.384,60.384
			S262.506,289.542,229.157,289.542z"/>
    </symbol>
    <symbol id="icon-play" viewBox="0 0 512 512">
        <path d="M133,440a35.37,35.37,0,0,1-17.5-4.67c-12-6.8-19.46-20-19.46-34.33V111c0-14.37,7.46-27.53,19.46-34.33a35.13,35.13,0,0,1,35.77.45L399.12,225.48a36,36,0,0,1,0,61L151.23,434.88A35.5,35.5,0,0,1,133,440Z"/>
    </symbol>
    <symbol id="icon-prev" viewBox="0 0 493.52 493.52">
        <g>
            <path d="M447.126,0.236c-10.056,0-20.884,4.12-32.148,11.884L140.882,200.952c-17.644,12.152-27.252,28.504-27.252,46.06
			c-0.004,17.56,9.78,33.924,27.428,46.076L415.39,481.784c11.284,7.768,22.568,11.736,32.604,11.736h0.012
			c10.76,0,18.916-4.404,25.276-12.972c6.268-8.46,8.688-20.476,8.688-35.012V48.508C481.974,18.74,469.186,0.236,447.126,0.236z"/>
            <path d="M53.106,0.036L39.894,0C25.018,0,11.55,12.112,11.55,26.996v439.42c0,14.884,13.024,27.1,27.908,27.1h0.456l12.948-0.072
			c14.88,0,28.092-12.164,28.092-27.048V27.028C80.958,12.144,67.97,0.036,53.106,0.036z"/>
        </g>
    </symbol>
    <symbol id="icon-next" viewBox="0 0 493.796 493.796">
        <g>
            <path d="M355.938,200.956L81.414,12.128c-11.28-7.776-23.012-11.88-33.056-11.88c-22.052,0-36.672,18.496-36.672,48.26v397.036
			c0,14.54,4.228,26.688,10.496,35.144c6.364,8.572,16.32,13.108,27.076,13.108c10.04,0,21.308-4.112,32.584-11.876l274.276-188.828
			c17.632-12.152,27.3-28.508,27.296-46.076C383.414,229.456,373.594,213.1,355.938,200.956z"/>
            <path d="M456.446,493.672l-0.293-0.004c-0.048,0-0.095,0.004-0.143,0.004H456.446z"/>
            <path d="M455.638,0L444.29,0.032c-14.86,0-27.724,12.112-27.724,26.992v439.368c0,14.896,12.652,27.124,27.532,27.124
				l12.055,0.152c14.805-0.079,25.957-12.412,25.957-27.252V26.996C482.11,12.116,470.51,0,455.638,0z"/>
        </g>
    </symbol>
    <symbol id="icon-playlist" viewBox="0 0 24 24">
       <g><path fill="none" d="M0 0h24v24H0z"></path><path d="M2 18h10v2H2v-2zm0-7h14v2H2v-2zm0-7h20v2H2V4zm17 11.17V9h5v2h-3v7a3 3 0 1 1-2-2.83z"></path></g>
    </symbol>
    <symbol id="icon-dots" viewBox="0 0 16 16">
        <path fill-rule="evenodd" d="M3 9.5a1.5 1.5 0 110-3 1.5 1.5 0 010 3zm5 0a1.5 1.5 0 110-3 1.5 1.5 0 010 3zm5 0a1.5 1.5 0 110-3 1.5 1.5 0 010 3z" clip-rule="evenodd"></path>
    </symbol>
    <symbol id="icon-shuffle" viewBox="0 0 24 24">
        <path d="M17,17h-1.559l-9.7-10.673C5.552,6.119,5.283,6,5.001,6H2v2h2.559l4.09,4.5l-4.09,4.501H2v2h3.001 c0.282,0,0.551-0.119,0.74-0.327L10,13.987l4.259,4.686C14.448,18.881,14.717,19,14.999,19H17v3l5-4l-5-4V17z"></path><path d="M15.441,8H17v3l5-3.938L17,3v3h-2.001c-0.282,0-0.551,0.119-0.74,0.327l-3.368,3.707l1.48,1.346L15.441,8z"></path>
    </symbol>
    <symbol id="icon-repeat" viewBox="0 0 24 24">
        <g><path fill="none" d="M0 0h24v24H0z"></path><path d="M6 4h15a1 1 0 0 1 1 1v7h-2V6H6v3L1 5l5-4v3zm12 16H3a1 1 0 0 1-1-1v-7h2v6h14v-3l5 4-5 4v-3z"></path></g>
    </symbol>
    <symbol id="icon-volume_full" viewBox="0 0 16 16">
        <path d="M11.536 14.01A8.473 8.473 0 0014.026 8a8.473 8.473 0 00-2.49-6.01l-.708.707A7.476 7.476 0 0113.025 8c0 2.071-.84 3.946-2.197 5.303l.708.707z"></path><path d="M10.121 12.596A6.48 6.48 0 0012.025 8a6.48 6.48 0 00-1.904-4.596l-.707.707A5.483 5.483 0 0111.025 8a5.483 5.483 0 01-1.61 3.89l.706.706z"></path><path d="M8.707 11.182A4.486 4.486 0 0010.025 8a4.486 4.486 0 00-1.318-3.182L8 5.525A3.489 3.489 0 019.025 8 3.49 3.49 0 018 10.475l.707.707z"></path><path fill-rule="evenodd" d="M6.717 3.55A.5.5 0 017 4v8a.5.5 0 01-.812.39L3.825 10.5H1.5A.5.5 0 011 10V6a.5.5 0 01.5-.5h2.325l2.363-1.89a.5.5 0 01.529-.06z" clip-rule="evenodd"></path>
    </symbol>
    <symbol id="icon-volume_mid" viewBox="0 0 16 16">
        <path fill-rule="evenodd" d="M8.717 3.55A.5.5 0 019 4v8a.5.5 0 01-.812.39L5.825 10.5H3.5A.5.5 0 013 10V6a.5.5 0 01.5-.5h2.325l2.363-1.89a.5.5 0 01.529-.06z" clip-rule="evenodd"></path><path d="M10.707 11.182A4.486 4.486 0 0012.025 8a4.486 4.486 0 00-1.318-3.182L10 5.525A3.489 3.489 0 0111.025 8c0 .966-.392 1.841-1.025 2.475l.707.707z"></path>
    </symbol>
    <symbol id="icon-volume_mute">
        <path fill-rule="evenodd" d="M6.717 3.55A.5.5 0 017 4v8a.5.5 0 01-.812.39L3.825 10.5H1.5A.5.5 0 011 10V6a.5.5 0 01.5-.5h2.325l2.363-1.89a.5.5 0 01.529-.06zm7.137 1.596a.5.5 0 010 .708l-4 4a.5.5 0 01-.708-.708l4-4a.5.5 0 01.708 0z" clip-rule="evenodd"></path><path fill-rule="evenodd" d="M9.146 5.146a.5.5 0 000 .708l4 4a.5.5 0 00.708-.708l-4-4a.5.5 0 00-.708 0z" clip-rule="evenodd"></path>
    </symbol>
</svg>